# xmcd
#
# Track frame offsets:
#	150
#	5901
#	25757
#	43947
#	62490
#	78533
#	93272
#	108044
#	122086
#	140648
#	163627
#	177577
#	197705
#	228746
#	250662
#	265356
#	279376
#	300300
#	324188
#
# Disc length: 4668 seconds
#
# Revision: 0
# Processed by: cddbd v1.5.2PL0 Copyright (c) Steve Scherf et al.
# Submitted via: EasyCDDAExtractor 15.3.0.1
#
DISCID=02123a13
DTITLE=Celine Dion - Taking Chances World Tour - The Concert
DYEAR=2010
DGENRE=Pop
TTITLE0=Opening
TTITLE1=I Drove All Night
TTITLE2=The Power Of Love
TTITLE3=Taking Chances
TTITLE4=It's All Coming Back To Me Now
TTITLE5=Because You Loved Me (Love Theme From ''Up Close and Personal'')
TTITLE6=To Love You More
TTITLE7=New Mego's Flamenco
TTITLE8=Eyes On Me
TTITLE9=All By Myself
TTITLE10=Shadow Of Love
TTITLE11=Alone
TTITLE12=My Love
TTITLE13=The Prayer (Duet With Andrea Bocelli)
TTITLE14=Soul Medley (Sex Machine, Soul Man, Lady Marmalade, Sir Duke, Respect
TTITLE14=, I Got The Feelin', I Got You (I Feel Good))
TTITLE15=It's A Man's Man's Man's World
TTITLE16=Love Can Move Mountains
TTITLE17=River Deep, Mountain High
TTITLE18=My Heart Will Go On
EXTD=YEAR: 2010\n
EXTT0=
EXTT1=
EXTT2=
EXTT3=
EXTT4=
EXTT5=
EXTT6=
EXTT7=
EXTT8=
EXTT9=
EXTT10=
EXTT11=
EXTT12=
EXTT13=
EXTT14=
EXTT15=
EXTT16=
EXTT17=
EXTT18=
PLAYORDER=
